<svg width="60" height="58" viewBox="0 0 60 58" fill="none" xmlns="http://www.w3.org/2000/svg">
<g filter="url(#filter0_dd_2_274)">
<path d="M45.8633 42.0219C49.0446 37.9788 51.6741 31.7036 50.8458 26.4279C50.5844 20.5536 48.1801 15.068 44.0065 10.8829C39.5802 6.44437 33.6952 4 27.4354 4C23.7324 4 20.1881 4.84248 16.9014 6.5037C16.4499 6.73203 16.2681 7.28397 16.4958 7.73667C16.7235 8.18937 17.274 8.37132 17.7254 8.14335C18.4487 7.77766 19.1863 7.4562 19.9357 7.17718L17.7028 14.0677H10.4853C10.9712 13.4531 11.4915 12.8609 12.048 12.295C12.403 11.9336 12.3987 11.3525 12.0387 10.9965C11.6787 10.6409 11.0988 10.6449 10.7442 11.0059C6.44158 15.3833 4 21.3544 4 27.5002C4 40.315 14.6628 51 27.4354 51C34.1301 51 42.0487 47.8347 45.8633 42.0219ZM41.9458 31.2624L35.9973 29.3246L33.2929 20.9772L36.969 15.9033H45.6761C47.5744 18.8956 48.7603 22.3838 48.9951 26.127L41.9458 31.2624ZM27.4354 34.6269L20.6758 29.7022L23.2576 21.7341H31.6129L34.1947 29.7022L27.4354 34.6269ZM49.0206 28.3779C48.8567 32.4813 47.5497 36.2942 45.41 39.5052L43.1829 32.6309L49.0206 28.3779ZM44.3734 14.0677H37.1677L34.9373 7.18365C38.6798 8.57771 41.9354 10.9832 44.3734 14.0677ZM27.4354 5.83597C29.2843 5.83597 31.0797 6.07042 32.7941 6.51089L35.4877 14.8242L31.8116 19.8985H23.0589L19.3828 14.8246L22.0782 6.50622C23.8123 6.06179 25.6024 5.83597 27.4354 5.83597ZM17.9015 15.9033L21.5777 20.9772L18.8732 29.3246L12.9247 31.2627L5.87502 26.1266C6.10308 22.4586 7.24157 18.9614 9.1815 15.9033H17.9015ZM5.85028 28.3779L11.688 32.6309L9.46047 39.5052C7.32082 36.2942 6.01415 32.4813 5.85028 28.3779ZM10.8012 41.3088L13.4906 33.0088L19.4391 31.0707L26.52 36.2295V42.5012L19.4696 47.6376C16.0734 46.2821 13.0986 44.0869 10.8012 41.3088ZM21.5945 48.3589L27.4354 44.1034L33.2764 48.3589C31.4175 48.8832 29.4585 49.164 27.4354 49.164C25.412 49.164 23.453 48.8832 21.5945 48.3589ZM35.401 47.6376L28.3509 42.5012V36.2295L35.4318 31.0707L41.3799 33.0085L44.0693 41.3088C41.7719 44.0869 38.7971 46.2821 35.401 47.6376Z" fill="#FF7B31"/>
<path d="M14.1798 10.1626C14.3709 10.1626 14.5638 10.1029 14.7284 9.97888C15.1329 9.67469 15.215 9.09937 14.9116 8.69377C14.6083 8.28818 14.0345 8.20619 13.6301 8.51039L13.6293 8.51075C13.2249 8.81495 13.1431 9.38991 13.4465 9.7955C13.6265 10.0361 13.9012 10.1626 14.1798 10.1626Z" fill="#FF7B31"/>
<path d="M40.1228 40.2225C39.5351 40.8115 38.9011 41.3641 38.2384 41.8654C37.8347 42.1706 37.754 42.7463 38.0584 43.1512C38.2384 43.3903 38.5127 43.5165 38.7899 43.5165C38.9821 43.5165 39.1754 43.4561 39.3407 43.3313C40.0711 42.779 40.7697 42.1699 41.4172 41.5205C41.7748 41.162 41.7748 40.581 41.4172 40.2225C41.0601 39.864 40.4803 39.864 40.1228 40.2225Z" fill="#FF7B31"/>
<path d="M35.2658 43.6885C34.8068 43.901 34.6063 44.4465 34.8183 44.9067C34.9728 45.2426 35.3041 45.4403 35.6502 45.4403C35.7785 45.4403 35.9091 45.413 36.0331 45.3555L36.0339 45.3551C36.4928 45.143 36.6929 44.5975 36.481 44.1372C36.2691 43.677 35.7248 43.476 35.2658 43.6885Z" fill="#FF7B31"/>
</g>
<defs>
<filter id="filter0_dd_2_274" x="0" y="0" width="60" height="58" filterUnits="userSpaceOnUse" color-interpolation-filters="sRGB">
<feFlood flood-opacity="0" result="BackgroundImageFix"/>
<feColorMatrix in="SourceAlpha" type="matrix" values="0 0 0 0 0 0 0 0 0 0 0 0 0 0 0 0 0 0 127 0" result="hardAlpha"/>
<feOffset dx="5" dy="3"/>
<feGaussianBlur stdDeviation="2"/>
<feComposite in2="hardAlpha" operator="out"/>
<feColorMatrix type="matrix" values="0 0 0 0 0 0 0 0 0 0 0 0 0 0 0 0 0 0 0.25 0"/>
<feBlend mode="normal" in2="BackgroundImageFix" result="effect1_dropShadow_2_274"/>
<feColorMatrix in="SourceAlpha" type="matrix" values="0 0 0 0 0 0 0 0 0 0 0 0 0 0 0 0 0 0 127 0" result="hardAlpha"/>
<feOffset/>
<feGaussianBlur stdDeviation="2"/>
<feComposite in2="hardAlpha" operator="out"/>
<feColorMatrix type="matrix" values="0 0 0 0 1 0 0 0 0 0.482667 0 0 0 0 0.191667 0 0 0 1 0"/>
<feBlend mode="normal" in2="effect1_dropShadow_2_274" result="effect2_dropShadow_2_274"/>
<feBlend mode="normal" in="SourceGraphic" in2="effect2_dropShadow_2_274" result="shape"/>
</filter>
</defs>
</svg>
