<svg width="17" height="15" viewBox="0 0 17 15" fill="none" xmlns="http://www.w3.org/2000/svg">
<path d="M16.0356 1.34501C15.6721 0.800604 15.0116 0.504827 14.2229 0.532684C13.5822 0.555441 12.8538 0.907661 12.301 1.24122C12.301 1.23979 12.301 1.23844 12.301 1.23702C12.3015 1.22307 12.3031 1.20944 12.3031 1.19529C12.3031 0.539136 11.7712 0.00718111 11.115 0.00718111C11.0965 0.00718111 8.16617 0 8.16617 0V0.00249779C8.16617 0.00249779 5.24736 0.00954007 5.22894 0.00954007C4.57272 0.00954007 4.0408 0.541495 4.0408 1.19771C4.0408 1.21173 4.04243 1.2255 4.04291 1.23938C4.04291 1.2408 4.04291 1.24222 4.04291 1.24358C3.49014 0.91009 2.76177 0.5578 2.12109 0.534973C1.332 0.506908 0.67155 0.803032 0.30816 1.34748C-0.151707 2.03648 -0.0966521 3.0154 0.471798 4.2571C1.3303 6.13192 3.34791 7.53892 4.34771 8.14814C4.83717 9.285 5.84831 10.139 7.17716 10.4068C7.20061 10.4624 7.2131 10.5166 7.2131 10.572C7.2131 10.8351 7.2131 11.7524 7.2131 12.3969H6.41465C5.99468 12.3969 5.65425 12.6564 5.65425 12.9766V13.0623H5.38016C4.85167 13.0623 4.42327 13.4908 4.42327 14.0192V15C6.75115 15 9.33482 14.9976 11.9205 14.9976V14.0169C11.9205 13.4885 11.4921 13.06 10.9636 13.06H10.6896V12.9743C10.6896 12.6541 10.3492 12.3947 9.92915 12.3947H9.13069C9.13069 11.7501 9.13069 10.8328 9.13069 10.5697C9.13069 10.5142 9.14318 10.4601 9.16663 10.4045C10.4954 10.1367 11.5066 9.28268 11.9961 8.14588C12.9959 7.53656 15.0135 6.12959 15.872 4.25471C16.4404 3.01297 16.4955 2.03402 16.0356 1.34501ZM1.43972 3.81392C1.0467 2.95552 0.959314 2.28948 1.19358 1.93848C1.41821 1.60194 1.93115 1.59347 2.08303 1.59888C2.62564 1.61828 3.49462 2.12286 4.04035 2.51726C4.03892 3.93846 4.02304 6.61586 4.02397 6.6527C3.10715 5.98885 1.97948 4.99269 1.43972 3.81392ZM14.9041 3.81146C14.3658 4.98711 13.2373 5.98399 12.3199 6.64882C12.3208 6.61242 12.3048 3.936 12.3034 2.51487C12.8492 2.12047 13.7182 1.61581 14.2608 1.59656C14.4126 1.59101 14.9256 1.59961 15.1502 1.93608C15.3845 2.28705 15.2971 2.95309 14.9041 3.81146Z" fill="#FF7B31"/>
</svg>
